<svg width="801" height="801" viewBox="0 0 801 801" fill="none" xmlns="http://www.w3.org/2000/svg">
<g clip-path="url(#clip0_1027_3)">
<mask id="mask0_1027_3" style="mask-type:alpha" maskUnits="userSpaceOnUse" x="0" y="-11" width="802" height="802">
<path fill-rule="evenodd" clip-rule="evenodd" d="M200.843 736.936C392.399 847.531 637.341 781.899 747.936 590.343C858.531 398.787 792.899 153.845 601.343 43.25C409.787 -67.345 164.845 -1.71303 54.25 189.843C-56.345 381.399 9.28697 626.341 200.843 736.936ZM224.151 696.556C393.41 794.278 609.841 736.285 707.562 567.026C805.284 397.768 747.292 181.337 578.033 83.6153C408.774 -14.1063 192.343 43.886 94.6215 213.145C-3.10015 382.404 54.8922 598.834 224.151 696.556Z" fill="white"/>
</mask>
<g mask="url(#mask0_1027_3)">
<path d="M401.327 393.787L470.223 859.512H174.461L401.327 393.787Z" fill="#FF9356"/>
<path d="M410.721 403.746L-58.9595 582.269L48.5369 14.5409L410.721 403.746Z" fill="#019C64"/>
<path d="M395.38 394.441L610.454 -109.274L895.262 296.255L395.38 394.441Z" fill="#D14735"/>
</g>
<mask id="mask1_1027_3" style="mask-type:alpha" maskUnits="userSpaceOnUse" x="83" y="72" width="637" height="637">
<path fill-rule="evenodd" clip-rule="evenodd" d="M242.092 665.5C394.193 753.315 588.684 701.202 676.499 549.101C764.314 397 712.201 202.51 560.1 114.694C407.999 26.879 213.509 78.9926 125.694 231.093C37.8781 383.194 89.9917 577.684 242.092 665.5ZM264.002 627.531C395.142 703.245 562.83 658.313 638.543 527.173C714.257 396.034 669.325 228.346 538.185 152.633C407.046 76.9194 239.358 121.851 163.645 252.991C87.9311 384.13 132.863 551.818 264.002 627.531Z" fill="white"/>
</mask>
<g mask="url(#mask1_1027_3)">
<path d="M401.326 393.781L773.568 763.45L288.214 889.844L401.326 393.781Z" fill="#FF9356"/>
<path d="M407.024 391.85L-35.3557 245.235L106.206 10.1395L407.024 391.85Z" fill="#019C64"/>
<path d="M395.377 394.442L702.785 131.481L854.457 394.439L395.377 394.442Z" fill="#D14735"/>
</g>
<path d="M375.078 495.906C361.183 492.489 348.096 486.369 336.566 477.894C325.036 469.419 315.288 458.756 307.879 446.514C300.469 434.272 295.544 420.691 293.383 406.545C291.223 392.4 291.87 377.967 295.287 364.072" stroke="white" stroke-width="10"/>
<path d="M380.202 283.152C406.627 277.988 434.029 282.791 457.123 296.634C480.217 310.477 497.368 332.38 505.269 358.12" stroke="white" stroke-width="10"/>
<path d="M499.497 436.91C491.873 452.935 480.449 466.856 466.22 477.462" stroke="white" stroke-width="10"/>
<path d="M526.857 214.874C554.413 234.651 576.917 260.649 592.539 290.757C608.162 320.864 616.463 354.232 616.769 388.15C617.075 422.068 609.376 455.58 594.299 485.964C579.221 516.348 557.19 542.748 529.995 563.019" stroke="white" stroke-width="10"/>
<path d="M253.963 293.642C274.061 262.982 303.235 239.367 337.409 226.095C371.583 212.823 409.049 210.559 444.573 219.618" stroke="white" stroke-width="10"/>
<path d="M228.817 472.556C216.831 447.516 210.448 420.163 210.112 392.404" stroke="white" stroke-width="10"/>
<path d="M429.542 561.68C384.034 569.224 337.393 558.381 299.88 531.536" stroke="white" stroke-width="10"/>
</g>
<defs>
<clipPath id="clip0_1027_3">
<rect width="801" height="801" fill="white"/>
</clipPath>
</defs>
</svg>
